ffmpeg started on 2016-11-27 at 02:50:08
Report written to "Output/NVENCh264/results/ffmpeg/old_town_cross_2160p50llhq2000k.log"
Command line:
Tools/ffmpeg/ffmpeg -benchmark -y -i Input/y4m/old_town_cross_2160p50.y4m -c:v h264_nvenc -preset llhq -b:v 2000k -an Output/NVENCh264/encoded/old_town_cross_2160p50llhq2000k.mkv
ffmpeg version N-82227-gdb23fde Copyright (c) 2000-2016 the FFmpeg developers
  built with gcc 5.4.0 (Ubuntu 5.4.0-6ubuntu1~16.04.2) 20160609
  configuration: --prefix=/home/jaroslav/ffmpeg_build --pkg-config-flags=--static --extra-cflags=-I/home/jaroslav/ffmpeg_build/include --extra-ldflags=-L/home/jaroslav/ffmpeg_build/lib --bindir=/home/jaroslav/bin --enable-gpl --enable-libass --enable-libfdk-aac --enable-libfreetype --enable-libmp3lame --enable-libopus --enable-libtheora --enable-libvorbis --enable-libvpx --enable-libx264 --enable-libx265 --enable-nvenc --enable-libmfx --enable-libxvid --enable-libgsm --enable-libopencore-amrnb --enable-version3 --enable-nonfree
  libavutil      55. 35.100 / 55. 35.100
  libavcodec     57. 66.101 / 57. 66.101
  libavformat    57. 57.100 / 57. 57.100
  libavdevice    57.  2.100 / 57.  2.100
  libavfilter     6. 66.100 /  6. 66.100
  libswscale      4.  3.100 /  4.  3.100
  libswresample   2.  4.100 /  2.  4.100
  libpostproc    54.  2.100 / 54.  2.100
Input #0, yuv4mpegpipe, from 'Input/y4m/old_town_cross_2160p50.y4m':
  Duration: 00:00:10.00, start: 0.000000, bitrate: 4976642 kb/s
    Stream #0:0: Video: rawvideo (I420 / 0x30323449), yuv420p(progressive), 3840x2160, SAR 1:1 DAR 16:9, 50 fps, 50 tbr, 50 tbn, 50 tbc
[h264_nvenc @ 0x28c6120] The variable bitrate rate-control requires the 'qmin' and/or 'qmax' option set.
Output #0, matroska, to 'Output/NVENCh264/encoded/old_town_cross_2160p50llhq2000k.mkv':
  Metadata:
    encoder         : Lavf57.57.100
    Stream #0:0: Video: h264 (h264_nvenc) (Main) (H264 / 0x34363248), yuv420p, 3840x2160 [SAR 1:1 DAR 16:9], q=-1--1, 2000 kb/s, 50 fps, 1k tbn, 50 tbc
    Metadata:
      encoder         : Lavc57.66.101 h264_nvenc
    Side data:
      cpb: bitrate max/min/avg: 0/0/2000000 buffer size: 4000000 vbv_delay: -1
Stream mapping:
  Stream #0:0 -> #0:0 (rawvideo (native) -> h264 (h264_nvenc))
Press [q] to stop, [?] for help
frame=   19 fps=0.0 q=0.0 size=       0kB time=00:00:00.00 bitrate=N/A speed=   0x    frame=   37 fps= 36 q=47.0 size=       1kB time=00:00:00.12 bitrate=  49.3kbits/s speed=0.117x    frame=   55 fps= 36 q=49.0 size=       1kB time=00:00:00.48 bitrate=  12.4kbits/s speed=0.311x    frame=   71 fps= 31 q=49.0 size=       1kB time=00:00:00.80 bitrate=   7.4kbits/s speed=0.35x    frame=   89 fps= 32 q=49.0 size=       1kB time=00:00:01.16 bitrate=   5.1kbits/s speed=0.413x    frame=  107 fps= 32 q=49.0 size=       1kB time=00:00:01.52 bitrate=   3.9kbits/s speed=0.457x    frame=  125 fps= 32 q=49.0 size=       1kB time=00:00:01.88 bitrate=   3.2kbits/s speed=0.489x    frame=  143 fps= 33 q=49.0 size=       1kB time=00:00:02.24 bitrate=   2.7kbits/s speed=0.513x    frame=  161 fps= 33 q=49.0 size=       1kB time=00:00:02.60 bitrate=   2.3kbits/s speed=0.533x    frame=  179 fps= 33 q=49.0 size=       1kB time=00:00:02.96 bitrate=   2.0kbits/s speed=0.549x    frame=  197 fps= 33 q=49.0 size=       1kB time=00:00:03.32 bitrate=   1.8kbits/s speed=0.563x    frame=  215 fps= 34 q=49.0 size=       1kB time=00:00:03.68 bitrate=   1.6kbits/s speed=0.574x    frame=  233 fps= 34 q=49.0 size=       1kB time=00:00:04.04 bitrate=   1.5kbits/s speed=0.584x    frame=  251 fps= 34 q=48.0 size=       1kB time=00:00:04.40 bitrate=   1.4kbits/s speed=0.592x    frame=  269 fps= 34 q=48.0 size=       1kB time=00:00:04.76 bitrate=   1.3kbits/s speed=0.599x    frame=  287 fps= 34 q=49.0 size=    1182kB time=00:00:05.12 bitrate=1890.8kbits/s speed=0.605x    frame=  305 fps= 34 q=49.0 size=    1182kB time=00:00:05.48 bitrate=1766.6kbits/s speed=0.61x    frame=  323 fps= 34 q=49.0 size=    1182kB time=00:00:05.84 bitrate=1657.7kbits/s speed=0.615x    frame=  341 fps= 34 q=49.0 size=    1182kB time=00:00:06.20 bitrate=1561.5kbits/s speed=0.62x    frame=  359 fps= 34 q=49.0 size=    1182kB time=00:00:06.56 bitrate=1475.8kbits/s speed=0.624x    frame=  377 fps= 34 q=49.0 size=    1182kB time=00:00:06.92 bitrate=1399.0kbits/s speed=0.627x    frame=  395 fps= 34 q=49.0 size=    1182kB time=00:00:07.28 bitrate=1329.9kbits/s speed=0.63x    frame=  413 fps= 34 q=49.0 size=    1182kB time=00:00:07.64 bitrate=1267.2kbits/s speed=0.634x    frame=  431 fps= 34 q=49.0 size=    1182kB time=00:00:08.00 bitrate=1210.2kbits/s speed=0.636x    frame=  449 fps= 34 q=49.0 size=    1182kB time=00:00:08.36 bitrate=1158.1kbits/s speed=0.639x    frame=  467 fps= 34 q=49.0 size=    1182kB time=00:00:08.72 bitrate=1110.3kbits/s speed=0.641x    frame=  475 fps= 34 q=49.0 size=    1182kB time=00:00:08.88 bitrate=1090.3kbits/s speed=0.629x    frame=  482 fps= 33 q=49.0 size=    1182kB time=00:00:09.02 bitrate=1073.4kbits/s speed=0.617x    frame=  500 fps= 33 q=49.0 size=    1182kB time=00:00:09.38 bitrate=1032.2kbits/s speed=0.619x    frame=  500 fps= 33 q=49.0 Lsize=    2672kB time=00:00:09.98 bitrate=2193.0kbits/s speed=0.657x    
video:2668kB audio:0kB subtitle:0kB other streams:0kB global headers:0kB muxing overhead: 0.158583%
bench: utime=1.120s
bench: maxrss=1398948kB
